# xmcd CD database file
#
# Track frame offsets:
#	150
#	9921
#	20712
#	30416
#	40837
#	48999
#	60078
#	70402
#	80411
#	88906
#	98857
#	110309
#	119476
#	130247
#	142004
#	153218
#	163916
#	172910
#	182774
#	194192
#	204559
#	213893
#	223504
#	234549
#	243938
#	253339
#	263530
#	275479
#	287351
#	296655
#	306301
#	315870
#
# Disc length: 4360 seconds
#
# Revision: 0
# Processed by: cddbd v1.5.2PL0 Copyright (c) Steve Scherf et al.
# Submitted via: jetAudio 7
#
DISCID=ca110620
DTITLE=Floyd Cramer - I Remember Hank Williams and Floyd Cramer Gets Orga
DTITLE=n-Ized
DYEAR=1900
DGENRE=Country
TTITLE0=Lovesick Blues
TTITLE1=Cold, Cold Heart
TTITLE2=Jambalaya (On The Bayou)
TTITLE3=Alone And Forsaken
TTITLE4=Why Don't You Love Me (Like You Used To Do)
TTITLE5=A House Of Gold
TTITLE6=Kaw-Liga
TTITLE7=I Can't Help It (If I'm Still In Love With You)
TTITLE8=Hey, Good Lookin'
TTITLE9=I'm So Lonesome I Could Cry
TTITLE10=Your Cheatin' Heart
TTITLE11=I Saw The Light
TTITLE12=The First Hurt
TTITLE13=Sentimental Journey
TTITLE14=My Funny Valentine
TTITLE15=Again
TTITLE16=The Dreamer
TTITLE17=My Blue Heaven
TTITLE18=Let's Go
TTITLE19=A String Of Pearls
TTITLE20=The Gospel Theme
TTITLE21=Lullaby Of Birdland
TTITLE22=Perdido
TTITLE23=Jordu
TTITLE24=Chattanooga Choo Choo
TTITLE25=Hot Pepper
TTITLE26=For Those That Cry
TTITLE27=Melissa
TTITLE28=Java
TTITLE29=Swing Low
TTITLE30=Losers Weepers
TTITLE31=Last Date
EXTD=Sepia Records Ltd. 1271 (©2014)
EXTT0=
EXTT1=
EXTT2=
EXTT3=
EXTT4=
EXTT5=
EXTT6=
EXTT7=
EXTT8=
EXTT9=
EXTT10=
EXTT11=
EXTT12=
EXTT13=
EXTT14=
EXTT15=
EXTT16=
EXTT17=
EXTT18=
EXTT19=
EXTT20=
EXTT21=
EXTT22=
EXTT23=
EXTT24=
EXTT25=
EXTT26=
EXTT27=
EXTT28=
EXTT29=
EXTT30=
EXTT31=
PLAYORDER=
